<?xml version="1.0" encoding="UTF-8"?>
<svg id="Layer_2" data-name="Layer 2" xmlns="http://www.w3.org/2000/svg" viewBox="0 0 287.96 266.06">
  <defs>
    <style>
      .cls-1 {
        fill: #369fce;
      }

      .cls-2 {
        fill: #2969a6;
      }
    </style>
  </defs>
  <g id="Layer_1-2" data-name="Layer 1">
    <g>
      <path class="cls-1" d="m0,253.96L78.56,113.59l43.79,76.75c23.35-41.21,46.71-82.42,70.06-123.63,14.27.04,28.55.09,42.82.13-37.54,66.41-75.08,132.82-112.62,199.23l-44.04-76.5-34.77,64.65-43.79-.26Z"/>
      <path class="cls-2" d="m100.73,76.08c14.31-25.36,28.62-50.72,42.92-76.08l21.83,38.34-43.08,75.82c-7.23-12.7-14.45-25.39-21.68-38.09Z"/>
      <polygon class="cls-2" points="172.05 253.83 229.88 151.83 287.96 253.83 244.43 253.83 230.01 227.99 215.08 253.83 172.05 253.83"/>
    </g>
  </g>
</svg>