<?xml version="1.0" encoding="UTF-8"?>
<svg id="Layer_2" data-name="Layer 2" xmlns="http://www.w3.org/2000/svg" viewBox="0 0 940.77 266.06">
  <defs>
    <style>
      .cls-1 {
        letter-spacing: .04em;
      }

      .cls-2 {
        letter-spacing: .05em;
      }

      .cls-3 {
        letter-spacing: .06em;
      }

      .cls-4 {
        font-family: GellerSansCn-Regular, 'GellerSansCn Regular';
        font-size: 46.55px;
        letter-spacing: .05em;
      }

      .cls-4, .cls-5 {
        fill: #3e9fc9;
      }

      .cls-6 {
        letter-spacing: .04em;
      }

      .cls-7 {
        letter-spacing: .05em;
      }

      .cls-8 {
        letter-spacing: .05em;
      }

      .cls-9 {
        letter-spacing: .04em;
      }

      .cls-10 {
        letter-spacing: .05em;
      }

      .cls-11 {
        letter-spacing: .06em;
      }

      .cls-12 {
        letter-spacing: .04em;
      }

      .cls-13 {
        letter-spacing: .04em;
      }

      .cls-5 {
        font-family: GellerSansCn-LightItalic, 'GellerSansCn LightItalic';
        font-size: 50.36px;
        font-style: italic;
        font-weight: 300;
      }

      .cls-14 {
        fill: #369fce;
      }

      .cls-15 {
        fill: #2969a6;
      }
    </style>
  </defs>
  <g id="Layer_1-2" data-name="Layer 1">
    <g>
      <g>
        <path class="cls-14" d="m0,253.96L78.56,113.59l43.79,76.75c23.35-41.21,46.71-82.42,70.06-123.63,14.27.04,28.55.09,42.82.13-37.54,66.41-75.08,132.82-112.62,199.23l-44.04-76.5-34.77,64.65-43.79-.26Z"/>
        <path class="cls-15" d="m100.73,76.08c14.31-25.36,28.62-50.72,42.92-76.08l21.83,38.34-43.08,75.82c-7.23-12.7-14.45-25.39-21.68-38.09Z"/>
        <polygon class="cls-15" points="172.05 253.83 229.88 151.83 287.96 253.83 244.43 253.83 230.01 227.99 215.08 253.83 172.05 253.83"/>
      </g>
      <g>
        <g>
          <polygon points="304.56 153.04 325.02 57.08 352.14 57.08 376.06 117.95 389.88 57.08 414.33 57.08 394.4 153.04 367.55 153.04 341.77 91.9 328.74 153.04 304.56 153.04"/>
          <path d="m493.81,122.73c7.29-15.46,4.05-32.51-6.64-41.19-9.01-7.32-20.26-6.22-23.13-5.85-4.85-.15-14.74.28-24.45,6.38-20.45,12.84-20.74,38.67-20.73,40.66-.27,2.32-1.15,12.24,5.58,21,9.82,12.8,26.54,11.01,27.38,10.9,3.46.5,13.74,1.53,24.72-4.25,10.72-5.65,15.67-14.4,17.27-17.54-9.12-.18-18.25-.36-27.37-.54-.54.99-1.45,2.35-2.93,3.53-4.74,3.76-13.49,4.16-18.34-1.13-4.3-4.7-3.08-11.18-2.92-11.97h51.56Zm-43.54-24.57c1.37-1.55,5.2-5.89,11.31-5.93.87,0,7.1.07,10.77,5.25,2.79,3.95,2.27,8.23,2.13,9.24-9.48-.02-18.96-.04-28.45-.07.4-1.83,1.41-5.28,4.24-8.49Z"/>
          <path d="m831.91,122.73c7.29-15.46,4.06-32.51-6.64-41.19-9.01-7.32-20.25-6.22-23.13-5.85-4.85-.15-14.74.28-24.45,6.38-20.45,12.84-20.74,38.67-20.73,40.66-.27,2.32-1.15,12.24,5.58,21,9.82,12.8,26.54,11.01,27.38,10.9,3.46.5,13.74,1.53,24.72-4.25,10.72-5.65,15.68-14.4,17.27-17.54-9.12-.18-18.25-.36-27.37-.54-.54.99-1.45,2.35-2.93,3.53-4.74,3.76-13.48,4.16-18.34-1.13-4.29-4.7-3.08-11.18-2.92-11.97h51.56Zm-43.54-24.57c1.38-1.55,5.2-5.89,11.32-5.93.87,0,7.09.07,10.76,5.25,2.79,3.95,2.28,8.23,2.13,9.24-9.48-.02-18.96-.04-28.44-.07.39-1.83,1.4-5.28,4.23-8.49Z"/>
          <path d="m512.41,77.02h22.86l10.9,22.46,19.4-22.46h26.85c-11.87,12.45-23.75,24.9-35.62,37.35,6.91,12.89,13.82,25.78,20.73,38.67h-26.58l-9.83-24.19-20.47,24.19h-28.44l38.54-39.87-18.34-36.15Z"/>
          <path d="m610.63,77.02l4.39-19.94h23.39l-4.52,19.94h18.87l-3.72,18.87h-18.87l-7.18,35.09c.03.28.29,2.09,1.96,3.22,1.5,1.02,3.08.76,3.39.7,3.8.11,7.6.22,11.4.33-.97,6.2-1.95,12.4-2.92,18.61-6.41.1-12.83.2-19.24.3-7.47.32-14.34-3.24-17.64-9.23-3-5.44-1.98-10.93-1.6-12.6,2.66-12.23,5.32-24.45,7.97-36.68l-11.56-.2,1.68-12.36,14.2-6.05Z"/>
          <path d="m728.31,86.65h24.52c.16-4.14-.22-11.27-4.6-17.69-9.2-13.49-28.66-13-36.2-12.81-5.63.14-16.18.54-27.07,7.42-15.63,9.86-20.33,25.69-21.43,29.86-2,5.2-4.45,13.41-4.59,23.66-.12,9.18-.24,17.71,5.45,25.38,7.74,10.45,20.74,11.88,25.12,12.36,3.96.44,14.04,1.4,23.99-4.78,5.99-3.72,9.47-8.5,11.23-11.36,1.24,4.92,2.48,9.83,3.72,14.75l10.83-.4,11.76-55.02-46.85.2-3.39,17.94c7.13.13,14.26.27,21.4.4-.43,1.81-2.4,9.26-9.7,14.22-6.67,4.54-13.54,4.1-15.88,3.92-3.38-.26-6.24-.49-8.77-2.46-5.77-4.49-4.85-14.16-4.15-21.54.92-9.63,4.21-16.27,4.89-17.6,2.64-5.19,6.75-13.27,15.28-16.32,3.47-1.24,6.63-1.28,8.51-1.3,4.26-.05,8.77-.09,12.16,2.99,2.78,2.53,3.56,6.03,3.79,8.17Z"/>
          <path d="m859.09,77.28h10.57l2.99,10.17c2.15-2.3,5.96-5.8,11.63-8.44,1.4-.65,7.37-3.33,15.79-3.53,5.4-.13,11.54-.27,17.44,3.66,4.95,3.3,7.33,7.89,8.37,10.3.32,1.75.67,4.24.73,7.24.08,3.92-.35,6.88-.58,8.39-1.98,12.95-3.6,19.39-3.6,19.39-1.64,6.51-3.83,15.96-6.31,29.07h-23.62c.78-3.34,1.85-8.01,3.09-13.59,3.86-17.35,2.69-13.63,4.12-19.34.54-2.15,1.99-7.78,2.78-15.31.43-4.11.41-6.39-1.05-8.22-2.22-2.78-6.41-2.79-8.77-2.79-1.52,0-5.82.06-9.81,2.98-3.82,2.8-5.19,6.64-6.7,10.87-.6,1.68-1.11,4.02-2.11,8.62-1.18,5.47-1.91,9.48-1.91,9.48-.85,4.67-2.37,12.61-5.35,27.28h-23.82l16.15-76.25Z"/>
        </g>
        <g>
          <text class="cls-5" transform="translate(594.53 219.77) scale(1.12 1)"><tspan class="cls-6" x="0" y="0">A</tspan><tspan class="cls-1" x="32.99" y="0">r</tspan><tspan class="cls-8" x="51.27" y="0">chi</tspan><tspan class="cls-12" x="120.52" y="0">t</tspan><tspan class="cls-10" x="139.21" y="0">e</tspan><tspan class="cls-11" x="166.76" y="0">c</tspan><tspan class="cls-10" x="192.29" y="0">tu</tspan><tspan class="cls-1" x="241.34" y="0">r</tspan><tspan class="cls-8" x="259.63" y="0">es</tspan></text>
          <text class="cls-4" transform="translate(547.42 220.17) scale(1.12 1)"><tspan x="0" y="0">&amp;</tspan></text>
          <text class="cls-5" transform="translate(344.11 219.77) scale(1.12 1)"><tspan class="cls-3" x="0" y="0">I</tspan><tspan class="cls-13" x="14.86" y="0">n</tspan><tspan class="cls-9" x="44.92" y="0">t</tspan><tspan class="cls-2" x="63.61" y="0">e</tspan><tspan class="cls-7" x="91.16" y="0">r</tspan><tspan class="cls-2" x="110.15" y="0">iors</tspan></text>
        </g>
      </g>
    </g>
  </g>
</svg>